custom-analysis
version=1
nRows=14
nColumns=42
inDegrees=no

This file contains tibia displacement and acting force.

Units are S.I. units (seconds, meters, Newtons, ...)
Angles are in degrees.

endheader
time	APT	SIT	knee_angle	aACL_R_force	pACL_R_force	aPCL_R_force	pPCL_R_force	aMCL_R_force	mMCL_R_force	pMCL_R_force	aLCL_R_force	mLCL_R_force	pLCL_R_force	aACL_R_length	pACL_R_length	aPCL_R_length	pPCL_R_length	aMCL_R_length	mMCL_R_length	pMCL_R_length	aLCL_R_length	mLCL_R_length	pLCL_R_length	aACL_R_strain	pACL_R_strain	aPCL_R_strain	pPCL_R_strain	aMCL_R_strain	mMCL_R_strain	pMCL_R_strain	aLCL_R_strain	mLCL_R_strain	pLCL_R_strain	femur_lat_meniscii_force_r	femur_lat_meniscii_torque_r	femur_med_meniscii_force_r	femur_med_meniscii_torque_r	femur_lat_tibia_force_r	femur_lat_tibia_torque_r	femur_med_tibia_force_r	femur_med_tibia_torque_r
      0.00000000	      0.00000000	      0.00000000	     15.00005728	     34.64446985	     23.66480373	      0.19485120	     75.99576998	      0.22366969	      8.10997858	      6.83469985	      0.00000000	      0.00000000	      0.00000000	      0.03311279	      0.02662436	      0.03114765	      0.03089680	      0.05836311	      0.06187900	      0.06256123	      0.05546224	      0.05309920	      0.05036743	      0.06796516	      0.04991024	      0.00168351	      0.02688795	      0.00579228	      0.03487831	      0.03018764	     -0.00919938	     -0.05716413	     -0.03773735	    115.94732200	     26.91332212	      0.00000000	      0.00000000	      0.00000000	      0.00000000	      0.00000000	      0.00000000
      0.00100000	      0.00000020	      0.00003504	     15.00005728	     11.83710553	     -0.39178440	    -15.48494183	     30.04288826	    -39.02367315	    -31.64729405	    -32.53818919	      0.00000000	      0.00000000	      0.00000000	      0.03308084	      0.02659195	      0.03112099	      0.03086936	      0.05833054	      0.06184620	      0.06252875	      0.05542945	      0.05306630	      0.05033465	      0.06693450	      0.04863235	      0.00082615	      0.02597601	      0.00523097	      0.03432987	      0.02965270	     -0.00978518	     -0.05774820	     -0.03836357	    238.30964122	     55.87216835	      0.00000000	      0.00000000	      0.00000000	      0.00000000	      0.00000000	      0.00000000
      0.00197155	     -0.00000318	      0.00010126	     15.00005728	      1.22999340	    -11.93664208	      0.00000000	     16.83149856	    -48.34949831	    -41.53827214	    -42.29221206	      0.00000000	      0.00000000	      0.00000000	      0.03301461	      0.02652433	      0.03107556	      0.03082226	      0.05827054	      0.06178568	      0.06246881	      0.05537023	      0.05300685	      0.05027552	      0.06479836	      0.04596573	     -0.00063468	      0.02441042	      0.00419698	      0.03331765	      0.02866561	     -0.01084310	     -0.05880390	     -0.03949312	    263.77363706	     60.26236670	      0.00000000	      0.00000000	      0.00000000	      0.00000000	      0.00000000	      0.00000000
      0.00294310	     -0.00000965	      0.00017533	     15.00005728	     -3.73442913	    -17.51411369	      0.00000000	     12.28329242	    -48.34714436	    -42.05783905	    -42.73269430	      0.00000000	      0.00000000	      0.00000000	      0.03293531	      0.02644289	      0.03102917	      0.03077382	      0.05820498	      0.06171942	      0.06240323	      0.05530654	      0.05294288	      0.05021204	      0.06224087	      0.04275400	     -0.00212660	      0.02280062	      0.00306717	      0.03220952	      0.02758586	     -0.01198101	     -0.05993971	     -0.04070592	    270.31301578	     61.21725360	      0.00000000	      0.00000000	      0.00000000	      0.00000000	      0.00000000	      0.00000000
      0.00474832	     -0.00002453	      0.00030414	     15.00005728	     -5.96584471	    -20.22469238	      0.00000000	     11.17009941	    -40.48434827	    -34.98016691	    -35.55180060	      0.00000000	      0.00000000	      0.00000000	      0.03278698	      0.02628933	      0.03095730	      0.03069813	      0.05809454	      0.06160749	      0.06229268	      0.05520102	      0.05283696	      0.05010723	      0.05745687	      0.03669868	     -0.00443810	      0.02028501	      0.00116401	      0.03033762	      0.02576541	     -0.01386601	     -0.06182044	     -0.04270834	    240.25617456	     52.21713888	      0.00000000	      0.00000000	      0.00000000	      0.00000000	      0.00000000	      0.00000000
      0.00704175	     -0.00003553	      0.00043757	     15.00005728	     -4.37001220	    -18.46157897	      0.00000000	      7.60300386	      0.00000000	    -26.83788377	    -27.26037387	      0.00000000	      0.00000000	      0.00000000	      0.03262576	      0.02612042	      0.03088869	      0.03062569	      0.05798481	      0.06149582	      0.06218299	      0.05509580	      0.05273168	      0.05000342	      0.05225720	      0.03003797	     -0.00664456	      0.01787745	     -0.00072701	      0.02847006	      0.02395905	     -0.01574570	     -0.06368977	     -0.04469153	    213.66302885	     45.79650180	      0.00000000	      0.00000000	      0.00000000	      0.00000000	      0.00000000	      0.00000000
      0.00833345	     -0.00003534	      0.00050360	     15.00005728	     -3.20372326	    -16.96094322	      0.00000000	      4.46800119	      0.00000000	    -23.78248728	    -24.16185443	      0.00000000	      0.00000000	      0.00000000	      0.03254839	      0.02603878	      0.03085241	      0.03058778	      0.05793107	      0.06144106	      0.06212944	      0.05504275	      0.05267880	      0.04995130	      0.04976189	      0.02681841	     -0.00781126	      0.01661742	     -0.00165313	      0.02755412	      0.02307729	     -0.01669343	     -0.06462875	     -0.04568732	    211.86782740	     45.64913665	      0.00000000	      0.00000000	      0.00000000	      0.00000000	      0.00000000	      0.00000000
      0.00962516	     -0.00003166	      0.00056165	     15.00005728	     -1.62185386	    -14.99554604	      0.00000000	      2.76548107	      0.00000000	    -20.20962254	    -20.55434559	      0.00000000	      0.00000000	      0.00000000	      0.03248171	      0.02596802	      0.03081915	      0.03055325	      0.05788426	      0.06139330	      0.06208291	      0.05499553	      0.05263185	      0.04990505	      0.04761136	      0.02402792	     -0.00888080	      0.01546986	     -0.00245984	      0.02675535	      0.02231106	     -0.01753704	     -0.06546238	     -0.04657105	    204.01252369	     44.34360024	      0.00000000	      0.00000000	      0.00000000	      0.00000000	      0.00000000	      0.00000000
      0.01178929	     -0.00001931	      0.00064236	     15.00005728	      0.74519600	    -11.97230120	      0.00000000	      1.40220397	      0.00000000	    -14.81603153	    -15.14048125	      0.00000000	      0.00000000	      0.00000000	      0.03239160	      0.02587152	      0.03077011	      0.03050280	      0.05782021	      0.06132782	      0.06201947	      0.05492856	      0.05256552	      0.04983973	      0.04470507	      0.02022281	     -0.01045796	      0.01379293	     -0.00356373	      0.02566031	      0.02126645	     -0.01873342	     -0.06664015	     -0.04781893	    192.26465495	     42.67734690	      0.00000000	      0.00000000	      0.00000000	      0.00000000	      0.00000000	      0.00000000
      0.01322007	     -0.00000889	      0.00068647	     15.00005728	      1.57151950	    -10.75944053	      0.00000000	      1.02890926	      0.00000000	    -12.18906211	    -12.51788375	      0.00000000	      0.00000000	      0.00000000	      0.03234302	      0.02581896	      0.03074237	      0.03047448	      0.05778611	      0.06129287	      0.06198582	      0.05489145	      0.05252891	      0.04980372	      0.04313817	      0.01815017	     -0.01134988	      0.01285172	     -0.00415138	      0.02507584	      0.02071240	     -0.01939624	     -0.06729023	     -0.04850694	    187.74315799	     42.05444966	      0.00000000	      0.00000000	      0.00000000	      0.00000000	      0.00000000	      0.00000000
      0.01465084	      0.00000194	      0.00072532	     15.00005728	      1.92083690	    -10.05460516	      0.00000000	      0.76516768	      0.00000000	    -10.28069083	    -10.61773144	      0.00000000	      0.00000000	      0.00000000	      0.03230010	      0.02577222	      0.03071791	      0.03044959	      0.05775681	      0.06126278	      0.06195697	      0.05485866	      0.05249662	      0.04977199	      0.04175377	      0.01630674	     -0.01213672	      0.01202456	     -0.00465629	      0.02457253	      0.02023730	     -0.01998201	     -0.06786350	     -0.04911300	    184.87284673	     41.73157305	      0.00000000	      0.00000000	      0.00000000	      0.00000000	      0.00000000	      0.00000000
      0.01657248	      0.00001584	      0.00077159	     15.00005728	      1.95577166	     -9.55534425	      0.00000000	      0.85700211	      0.00000000	     -8.33064920	     -8.69066700	      0.00000000	      0.00000000	      0.00000000	      0.03224805	      0.02571524	      0.03068949	      0.03042074	      0.05772289	      0.06122785	      0.06192361	      0.05481985	      0.05245847	      0.04973456	      0.04007504	      0.01405977	     -0.01305067	      0.01106555	     -0.00524079	      0.02398840	      0.01968797	     -0.02067545	     -0.06854101	     -0.04982818	    181.97437688	     41.29375558	      0.00000000	      0.00000000	      0.01370494	      0.00046638	      0.00000000	      0.00000000
      0.01849412	      0.00002813	      0.00081230	     15.00005728	      2.52145323	     -8.44096872	      0.00000000	      1.21004156	      0.00000000	     -6.35015236	     -6.76066455	      0.00000000	      0.00000000	      0.00000000	      0.03220106	      0.02566364	      0.03066559	      0.03039648	      0.05769390	      0.06119792	      0.06189510	      0.05478613	      0.05242536	      0.04970213	      0.03855970	      0.01202506	     -0.01381898	      0.01025945	     -0.00574041	      0.02348782	      0.01921849	     -0.02127776	     -0.06912888	     -0.05044775	    175.44803020	     39.87586279	      0.00000000	      0.00000000	     27.91787188	      0.97262751	      0.00000000	      0.00000000
      0.02119351	      0.00004364	      0.00084574	     15.00005728	      7.42362032	     -2.58474820	      0.00000000	      3.98749393	      0.00000000	     -0.92888897	     -1.48097703	      0.00000000	      0.00000000	      0.00000000	      0.03216222	      0.02562007	      0.03064560	      0.03037641	      0.05767164	      0.06117474	      0.06187342	      0.05475886	      0.05239883	      0.04967627	      0.03730704	      0.01030676	     -0.01446204	      0.00959239	     -0.00612399	      0.02310012	      0.01886155	     -0.02176500	     -0.06959986	     -0.05094177	    142.81867888	     32.89372858	      0.04371286	      0.01113084	     87.74683324	      3.04138832	      0.00000000	      0.00000000
